<?xml version="1.0" encoding="utf-8"?>
<!-- Generator: Adobe Illustrator 16.0.0, SVG Export Plug-In . SVG Version: 6.00 Build 0)  -->
<!DOCTYPE svg PUBLIC "-//W3C//DTD SVG 1.1//EN" "http://www.w3.org/Graphics/SVG/1.1/DTD/svg11.dtd">
<svg version="1.1" id="Layer_1" xmlns="http://www.w3.org/2000/svg" xmlns:xlink="http://www.w3.org/1999/xlink" x="0px" y="0px"
	 width="403.5px" height="368.5px" viewBox="236.5 111.5 403.5 368.5" enable-background="new 236.5 111.5 403.5 368.5"
	 xml:space="preserve">
<g>
	<g>
		<path fill="#FFFFFF" d="M420.668,397.114c-75.155,0-136.292-60.957-136.292-135.883c0-74.927,61.137-135.882,136.292-135.882
			c75.151,0,136.293,60.956,136.293,135.882C556.961,336.157,495.821,397.114,420.668,397.114z M420.668,131.976
			c-71.488,0-129.646,57.983-129.646,129.255c0,71.273,58.157,129.255,129.646,129.255s129.645-57.981,129.645-129.255
			C550.313,189.958,492.156,131.976,420.668,131.976z"/>
	</g>
	<g enable-background="new    ">
		<path fill="#FFFFFF" d="M333.978,217.766v85.662h-22.341v-85.662H333.978z"/>
		<path fill="#FFFFFF" d="M411.885,217.766v85.662h-19.529l-0.026-57.83l-7.775,57.83h-13.852l-8.198-56.508l-0.026,56.508h-19.53
			v-85.662h28.91c0.858,5.152,1.74,11.222,2.652,18.209l3.172,21.791l5.134-40H411.885z"/>
		<path fill="#FFFFFF" d="M420.853,217.766h16.718c10.791,0,18.089,0.495,21.893,1.482c3.8,0.987,6.693,2.61,8.676,4.867
			c1.981,2.258,3.219,4.77,3.714,7.538c0.496,2.771,0.744,8.212,0.744,16.325v29.999c0,7.691-0.364,12.83-1.088,15.424
			c-0.727,2.593-1.99,4.622-3.794,6.085c-1.805,1.465-4.034,2.485-6.688,3.067c-2.653,0.581-6.65,0.874-11.993,0.874h-28.181
			V217.766z M443.196,232.422v56.35c3.218,0,5.2-0.644,5.943-1.93c0.743-1.288,1.113-4.789,1.113-10.503v-33.281
			c0-3.879-0.124-6.367-0.37-7.461c-0.249-1.094-0.814-1.896-1.699-2.407C447.3,232.678,445.638,232.422,443.196,232.422z"/>
		<path fill="#FFFFFF" d="M501.732,217.766v20.28c1.769-2.052,3.742-3.582,5.917-4.589c2.177-1.008,4.538-1.51,7.085-1.51
			c2.936,0,5.483,0.458,7.642,1.374c2.157,0.917,3.804,2.205,4.937,3.863c1.131,1.657,1.811,3.279,2.042,4.867
			c0.23,1.588,0.346,4.975,0.346,10.159v31.641c0,5.15-0.346,8.986-1.037,11.508c-0.687,2.521-2.307,4.71-4.853,6.561
			c-2.549,1.851-5.573,2.777-9.076,2.777c-2.513,0-4.856-0.549-7.032-1.644c-2.176-1.096-4.166-2.739-5.97-4.931l-1.381,5.305
			h-20.059v-85.662H501.732z M508.261,253.163c0-3.634-0.231-6.006-0.69-7.115c-0.461-1.112-1.363-1.668-2.707-1.668
			c-1.309,0-2.158,0.486-2.548,1.455c-0.39,0.971-0.583,3.411-0.583,7.328v30.266c0,3.773,0.221,6.19,0.662,7.248
			c0.442,1.058,1.32,1.587,2.629,1.587c1.344,0,2.219-0.547,2.626-1.642c0.406-1.09,0.611-3.721,0.611-7.883V253.163z"/>
	</g>
</g>
<g id="Layer_3" display="none">
	<g display="inline">
		<path fill="#FFFFFF" stroke="#000000" stroke-miterlimit="10" d="M426.69,421.117c-77.133,0-139.886-62.75-139.886-139.886
			c0-77.131,62.753-139.885,139.886-139.885s139.884,62.754,139.884,139.885C566.573,358.366,503.823,421.117,426.69,421.117z
			 M426.69,148.17c-73.372,0-133.063,59.691-133.063,133.061c0,73.374,59.69,133.063,133.063,133.063
			c73.37,0,133.063-59.688,133.063-133.063C559.753,207.86,500.061,148.17,426.69,148.17z"/>
		<path fill="#FFFFFF" stroke="#000000" stroke-miterlimit="10" d="M464.379,219.862h-75.35c-13.086,0-23.735,10.636-23.735,23.717
			v25.055v50.249c0,13.083,10.65,23.719,23.735,23.719h75.35c13.085,0,23.74-10.636,23.74-23.719v-50.249v-25.055
			C488.119,230.498,477.463,219.862,464.379,219.862z M471.187,234.013l2.711-0.013v2.706v18.09l-20.746,0.082l-0.073-20.809
			L471.187,234.013z M409.179,268.633c3.923-5.446,10.31-9.015,17.53-9.015c7.214,0,13.594,3.568,17.52,9.015
			c2.561,3.546,4.104,7.885,4.104,12.598c0,11.916-9.704,21.596-21.623,21.596c-11.93,0-21.623-9.68-21.623-21.596
			C405.086,276.519,406.62,272.179,409.179,268.633z M476.149,318.883c0,6.487-5.277,11.755-11.771,11.755h-75.35
			c-6.494,0-11.768-5.268-11.768-11.755v-50.249h18.334c-1.58,3.896-2.473,8.141-2.473,12.598c0,18.512,15.063,33.561,33.586,33.561
			c18.515,0,33.578-15.049,33.578-33.561c0-4.457-0.898-8.701-2.471-12.598h18.333V318.883L476.149,318.883z"/>
	</g>
</g>
<g id="Layer_5" display="none">
	<g display="inline">
		<path fill="#FFFFFF" d="M438.248,430.072c-77.423,0-140.407-62.987-140.407-140.407s62.984-140.404,140.407-140.404
			c77.424,0,140.411,62.984,140.411,140.404S515.672,430.072,438.248,430.072z M438.248,156.11
			c-73.643,0-133.557,59.912-133.557,133.555c0,73.645,59.915,133.559,133.557,133.559c73.646,0,133.562-59.914,133.562-133.559
			C571.81,216.022,511.894,156.11,438.248,156.11z"/>
		<path fill="#FFFFFF" d="M462.19,289.729l-40.363,23.705v-47.418L462.19,289.729z M499.889,311.707v-44.08
			c0,0,0-21.248-21.244-21.248h-80.804c0,0-21.236,0-21.236,21.248v44.08c0,0,0,21.244,21.236,21.244h80.804
			C478.645,332.951,499.889,332.951,499.889,311.707"/>
	</g>
</g>
<g id="Layer_4" display="none">
	<g display="inline">
		<path fill="#FFFFFF" d="M438.25,433.814c-79.484,0-144.148-64.665-144.148-144.146c0-79.486,64.664-144.15,144.148-144.15
			c79.485,0,144.149,64.664,144.149,144.15C582.399,369.149,517.734,433.814,438.25,433.814z M438.25,152.55
			c-75.607,0-137.115,61.509-137.115,137.118c0,75.605,61.508,137.113,137.115,137.113c75.608,0,137.117-61.508,137.117-137.113
			C575.367,214.059,513.858,152.55,438.25,152.55z"/>
		<path fill="#FFFFFF" d="M402.832,342.078h-24.685v-79.018h24.685V342.078z M389.859,253.177h-0.183
			c-8.923,0-14.712-6.052-14.712-13.703c0-7.792,5.957-13.714,15.073-13.714c9.092,0,14.69,5.909,14.872,13.694
			C404.909,247.114,399.13,253.177,389.859,253.177z M501.537,342.078h-27.982v-40.897c0-10.7-4.369-17.999-13.993-17.999
			c-7.355,0-11.447,4.924-13.355,9.684c-0.724,1.704-0.603,4.068-0.603,6.451v42.762h-27.716c0,0,0.366-72.434,0-79.019h27.716
			v12.394c1.637-5.415,10.49-13.15,24.619-13.15c17.533,0,31.314,11.359,31.314,35.836V342.078z"/>
	</g>
</g>
<g id="Layer_2" display="none">
	<g display="inline">
		<path fill="#FFFFFF" d="M438.26,432.385c-78.705,0-142.736-64.022-142.736-142.719c0-78.694,64.031-142.717,142.736-142.717
			c78.695,0,142.718,64.022,142.718,142.717C580.978,368.362,516.955,432.385,438.26,432.385z M438.26,153.91
			c-74.863,0-135.774,60.901-135.774,135.756c0,74.859,60.911,135.759,135.774,135.759c74.855,0,135.755-60.899,135.755-135.759
			C574.014,214.81,513.115,153.91,438.26,153.91z"/>
		<g>
			<path fill="#FFFFFF" d="M500.91,289.665c0,15.252-12.352,27.622-27.598,27.622c-15.27,0-27.614-12.369-27.614-27.622
				c0-15.249,12.345-27.617,27.614-27.617C488.56,262.048,500.91,274.416,500.91,289.665z"/>
			<path fill="#FFFFFF" d="M430.79,289.665c0,15.252-12.343,27.622-27.613,27.622c-15.237,0-27.587-12.369-27.587-27.622
				c0-15.249,12.35-27.617,27.587-27.617C418.447,262.048,430.79,274.416,430.79,289.665z"/>
		</g>
	</g>
</g>
</svg>
