<?xml version="1.0" encoding="utf-8"?>
<!-- Generator: Adobe Illustrator 16.0.0, SVG Export Plug-In . SVG Version: 6.00 Build 0)  -->
<!DOCTYPE svg PUBLIC "-//W3C//DTD SVG 1.1//EN" "http://www.w3.org/Graphics/SVG/1.1/DTD/svg11.dtd">
<svg version="1.1" xmlns="http://www.w3.org/2000/svg" xmlns:xlink="http://www.w3.org/1999/xlink" x="0px" y="0px" width="640px"
	 height="480px" viewBox="0 0 640 480" enable-background="new 0 0 640 480" xml:space="preserve">
<g id="Layer_1" display="none">
	<g display="inline">
		<path fill="#FFFFFF" d="M319.255,431.508c-108.549,0-196.855-88.309-196.855-196.855c0-108.548,88.306-196.854,196.855-196.854
			c108.547,0,196.856,88.307,196.856,196.854C516.111,343.199,427.803,431.508,319.255,431.508z M319.255,47.4
			c-103.255,0-187.254,84-187.254,187.253c0,103.255,83.999,187.253,187.254,187.253c103.254,0,187.254-83.998,187.254-187.253
			C506.51,131.399,422.51,47.4,319.255,47.4z"/>
	</g>
	
		<text transform="matrix(1 0 0 1 156.2178 278.9766)" display="inline" fill="#FFFFFF" font-family="'Impact'" font-size="156.9825">IMDb</text>
</g>
<g id="Layer_3" display="none">
	<g display="inline">
		<path fill="#FFFFFF" d="M319.257,436.634c-111.372,0-201.98-90.605-201.98-201.981c0-111.369,90.608-201.979,201.98-201.979
			s201.978,90.61,201.978,201.979C521.234,346.028,430.629,436.634,319.257,436.634z M319.257,42.526
			c-105.941,0-192.128,86.187-192.128,192.126c0,105.943,86.187,192.128,192.128,192.128c105.939,0,192.129-86.185,192.129-192.128
			C511.386,128.712,425.196,42.526,319.257,42.526z"/>
		<path fill="#FFFFFF" d="M373.676,146.042H264.878c-18.893,0-34.271,15.357-34.271,34.245v36.176v72.554
			c0,18.89,15.379,34.248,34.271,34.248h108.798c18.892,0,34.279-15.358,34.279-34.248v-72.554v-36.176
			C407.955,161.399,392.567,146.042,373.676,146.042z M383.505,166.473l3.914-0.018v3.908v26.12l-29.955,0.117l-0.106-30.045
			L383.505,166.473z M293.972,216.462c5.665-7.865,14.886-13.016,25.311-13.016c10.417,0,19.629,5.151,25.298,13.016
			c3.697,5.119,5.925,11.384,5.925,18.19c0,17.205-14.011,31.181-31.223,31.181c-17.224,0-31.221-13.976-31.221-31.181
			C288.062,227.847,290.278,221.582,293.972,216.462z M390.671,289.017c0,9.367-7.619,16.972-16.995,16.972H264.878
			c-9.376,0-16.991-7.604-16.991-16.972v-72.554h26.474c-2.282,5.626-3.572,11.754-3.572,18.19
			c0,26.728,21.751,48.458,48.494,48.458c26.734,0,48.485-21.73,48.485-48.458c0-6.436-1.298-12.563-3.568-18.19h26.472V289.017z"/>
	</g>
</g>
<g id="Layer_5" display="none">
	<g display="inline">
		<path fill="#FFFFFF" d="M319.251,437.385c-111.79,0-202.732-90.947-202.732-202.733c0-111.787,90.942-202.729,202.732-202.729
			c111.793,0,202.741,90.942,202.741,202.729C521.992,346.438,431.044,437.385,319.251,437.385z M319.251,41.812
			c-106.332,0-192.842,86.507-192.842,192.839c0,106.335,86.51,192.844,192.842,192.844c106.338,0,192.851-86.509,192.851-192.844
			C512.102,128.319,425.589,41.812,319.251,41.812z"/>
		<path fill="#FFFFFF" d="M353.822,234.744l-58.28,34.226v-68.466L353.822,234.744z M408.255,266.478v-63.646
			c0,0,0-30.68-30.675-30.68H260.908c0,0-30.663,0-30.663,30.68v63.646c0,0,0,30.675,30.663,30.675H377.58
			C377.58,297.152,408.255,297.152,408.255,266.478"/>
	</g>
</g>
<g id="Layer_4">
	<g>
		<path fill="#FFFFFF" d="M319.255,442.788c-114.767,0-208.136-93.369-208.136-208.133c0-114.769,93.369-208.137,208.136-208.137
			s208.137,93.368,208.137,208.137C527.392,349.419,434.021,442.788,319.255,442.788z M319.255,36.672
			c-109.17,0-197.981,88.813-197.981,197.983c0,109.167,88.812,197.979,197.981,197.979c109.171,0,197.982-88.812,197.982-197.979
			C517.237,125.484,428.426,36.672,319.255,36.672z"/>
		<path fill="#FFFFFF" d="M268.115,310.331h-35.642V196.237h35.642V310.331z M249.383,181.966h-0.263
			c-12.884,0-21.243-8.738-21.243-19.785c0-11.25,8.602-19.802,21.765-19.802c13.127,0,21.212,8.532,21.473,19.773
			C271.114,173.213,262.769,181.966,249.383,181.966z M410.635,310.331H370.23V251.28c0-15.451-6.307-25.99-20.204-25.99
			c-10.62,0-16.528,7.109-19.284,13.982c-1.045,2.46-0.87,5.875-0.87,9.315v61.743h-40.019c0,0,0.53-104.585,0-114.094h40.019
			v17.894c2.363-7.818,15.148-18.987,35.549-18.987c25.315,0,45.214,16.402,45.214,51.744V310.331z"/>
	</g>
</g>
<g id="Layer_2" display="none">
	<g display="inline">
		<path fill="#FFFFFF" d="M319.27,440.724c-113.644,0-206.097-92.442-206.097-206.071c0-113.627,92.453-206.069,206.097-206.069
			c113.626,0,206.068,92.442,206.068,206.069C525.338,348.281,432.896,440.724,319.27,440.724z M319.27,38.635
			c-108.097,0-196.045,87.934-196.045,196.018c0,108.089,87.948,196.021,196.045,196.021c108.082,0,196.014-87.933,196.014-196.021
			C515.283,126.568,427.352,38.635,319.27,38.635z"/>
		<g>
			<path fill="#FFFFFF" d="M409.729,234.652c0,22.022-17.834,39.883-39.848,39.883c-22.048,0-39.871-17.86-39.871-39.883
				c0-22.019,17.823-39.877,39.871-39.877C391.896,194.775,409.729,212.634,409.729,234.652z"/>
			<path fill="#FFFFFF" d="M308.484,234.652c0,22.022-17.822,39.883-39.872,39.883c-22,0-39.832-17.86-39.832-39.883
				c0-22.019,17.832-39.877,39.832-39.877C290.662,194.775,308.484,212.634,308.484,234.652z"/>
		</g>
	</g>
</g>
</svg>
